# xmcd
#
# Track frame offsets:
# 150
# 16341
# 34251
# 56838
# 74915
# 94542
# 112970
# 133817
# 151696
# 174326
# 194231
# 212645
# 228882
# 242304
# 259198
# 288525
#
# Disc length: 4113 seconds
#
#
# Revision: 4
# Processed by: cddbd v1.5.1PL0 Copyright (c) Steve Scherf et al.
# Submitted via: FreeRIP 2.942 
#
DISCID=e4100f10
DTITLE=Araketu - 
DYEAR=2004
DGENRE=Pagode
TTITLE0=Toma la, da ca
TTITLE1=Ara ketu bom demais
TTITLE2=Amantes
TTITLE3=Carta branca
TTITLE4=Face oculta
TTITLE5=Amor e devocao
TTITLE6=Ta na cara
TTITLE7=Sempre sera
TTITLE8=Minha razao de viver
TTITLE9=Mal acostumada
TTITLE10=Fanfarra
TTITLE11=Pra levantar poeira
TTITLE12=Avisa a vizinha (vixe maria)
TTITLE13=O, meu pai
TTITLE14=Cobertor
TTITLE15=Pipoca
EXTD=YEAR: 2004
EXTT0=
EXTT1=
EXTT2=
EXTT3=
EXTT4=
EXTT5=
EXTT6=
EXTT7=
EXTT8=
EXTT9=
EXTT10=
EXTT11=
EXTT12=
EXTT13=
EXTT14=
EXTT15=
PLAYORDER=
